<svg width="135" height="31" viewBox="0 0 135 31" fill="none" xmlns="http://www.w3.org/2000/svg">
    <path d="M9.0625 1.84375C10.1042 1.90625 10.9792 1.95833 11.6875 2C12.4167 2.02083 13.0208 2.04167 13.5 2.0625C14.0417 2.08333 14.5 2.08333 14.875 2.0625C15.25 2.04167 15.7604 1.98958 16.4062 1.90625C16.9479 1.84375 17.6667 1.75 18.5625 1.625C19.4792 1.47917 20.6146 1.29167 21.9688 1.0625C21.4896 1.54167 21.1146 1.97917 20.8438 2.375C20.5938 2.75 20.3958 3.07292 20.25 3.34375C20.0833 3.67708 19.9688 3.95833 19.9062 4.1875C19.8646 4.39583 19.9062 4.91667 20.0312 5.75C20.1562 6.58333 20.3333 7.57292 20.5625 8.71875C20.7917 9.84375 21.0417 11.0521 21.3125 12.3438C21.5833 13.6146 21.8542 14.8125 22.125 15.9375C22.3958 17.0417 22.6354 17.9896 22.8438 18.7812C23.0729 19.5521 23.2396 20.0104 23.3438 20.1562C23.6562 20.5938 23.8542 20.8854 23.9375 21.0312C24.0208 21.1562 24.1667 21.2708 24.375 21.375C24.4583 21.4167 24.5938 21.4792 24.7812 21.5625C24.9479 21.6458 25.1667 21.75 25.4375 21.875C25.7292 22 26.0938 22.1458 26.5312 22.3125C25.7188 22.3542 25.0208 22.3854 24.4375 22.4062C23.8542 22.4062 23.375 22.4167 23 22.4375C22.5625 22.4583 22.1875 22.4792 21.875 22.5C21.5625 22.5 21.1875 22.5208 20.75 22.5625C20.375 22.6042 19.8854 22.6458 19.2812 22.6875C18.6979 22.7292 18.0104 22.7708 17.2188 22.8125C17.6354 22.5208 17.9688 22.2604 18.2188 22.0312C18.4896 21.7812 18.6979 21.5729 18.8438 21.4062C19.0104 21.1979 19.125 21.0104 19.1875 20.8438C19.2292 20.6562 19.2604 20.375 19.2812 20C19.3021 19.6667 19.3021 19.2292 19.2812 18.6875C19.2604 18.125 19.2083 17.3958 19.125 16.5L10.9062 17.3438C10.6979 17.6979 10.5417 18.0104 10.4375 18.2812C10.3333 18.5312 10.2604 18.75 10.2188 18.9375C10.1562 19.1667 10.1354 19.3542 10.1562 19.5C10.1979 19.6667 10.2708 19.8646 10.375 20.0938C10.4792 20.3021 10.625 20.5521 10.8125 20.8438C11.0208 21.1146 11.3229 21.4375 11.7188 21.8125C11.1979 21.7917 10.6667 21.7812 10.125 21.7812C9.58333 21.7812 9.08333 21.7917 8.625 21.8125C8.08333 21.8333 7.55208 21.8542 7.03125 21.875C6.51042 21.8958 5.91667 21.9271 5.25 21.9688C4.6875 22.0104 4.03125 22.0625 3.28125 22.125C2.51042 22.1667 1.6875 22.2292 0.8125 22.3125C1.35417 22.0625 1.8125 21.8125 2.1875 21.5625C2.5625 21.2917 2.875 21.0417 3.125 20.8125C3.41667 20.5625 3.66667 20.3229 3.875 20.0938C4.02083 19.8854 4.3125 19.4062 4.75 18.6562C5.1875 17.8854 5.67708 16.9792 6.21875 15.9375C6.78125 14.8958 7.36458 13.7812 7.96875 12.5938C8.59375 11.4062 9.15625 10.2917 9.65625 9.25C10.1562 8.1875 10.5625 7.27083 10.875 6.5C11.1875 5.72917 11.3438 5.22917 11.3438 5C11.3021 4.72917 11.1979 4.42708 11.0312 4.09375C10.8854 3.80208 10.6562 3.46875 10.3438 3.09375C10.0521 2.71875 9.625 2.30208 9.0625 1.84375ZM18.75 14.1875C18.625 13.4583 18.5104 12.8333 18.4062 12.3125C18.3021 11.7708 18.2188 11.3229 18.1562 10.9688C18.0729 10.5521 18.0104 10.1875 17.9688 9.875C17.9062 9.58333 17.8333 9.20833 17.75 8.75C17.6667 8.35417 17.5625 7.86458 17.4375 7.28125C17.3333 6.67708 17.1979 5.95833 17.0312 5.125C15.8438 7.5 14.9167 9.34375 14.25 10.6562C13.6042 11.9479 13.1354 12.8958 12.8438 13.5C12.4896 14.2083 12.2917 14.625 12.25 14.75L18.75 14.1875ZM28.2812 1.875C28.7188 1.60417 29.1562 1.53125 29.5938 1.65625C30.0521 1.76042 30.3958 1.98958 30.625 2.34375C30.875 2.67708 30.9688 3.07292 30.9062 3.53125C30.8438 3.98958 30.5417 4.41667 30 4.8125C29.4792 5.1875 28.9896 5.3125 28.5312 5.1875C28.0729 5.0625 27.7292 4.8125 27.5 4.4375C27.2917 4.0625 27.2292 3.63542 27.3125 3.15625C27.3958 2.65625 27.7188 2.22917 28.2812 1.875ZM26.9688 9.59375C26.8854 9.34375 26.7917 9.08333 26.6875 8.8125C26.5833 8.58333 26.4479 8.33333 26.2812 8.0625C26.1354 7.79167 25.9375 7.52083 25.6875 7.25C26.6458 7.45833 27.3958 7.57292 27.9375 7.59375C28.2708 7.63542 28.5729 7.64583 28.8438 7.625C29.1146 7.64583 29.4271 7.63542 29.7812 7.59375C30.0729 7.57292 30.4375 7.54167 30.875 7.5C31.3125 7.4375 31.8021 7.35417 32.3438 7.25C32.0938 7.41667 31.8646 7.60417 31.6562 7.8125C31.4688 8.02083 31.3125 8.21875 31.1875 8.40625C31.0208 8.63542 30.8854 8.86458 30.7812 9.09375C30.6771 9.30208 30.5938 9.79167 30.5312 10.5625C30.4896 11.3333 30.4479 12.2604 30.4062 13.3438C30.3854 14.4271 30.3542 15.6042 30.3125 16.875C30.2917 18.125 30.2604 19.3333 30.2188 20.5C30.1771 21.6458 30.1146 22.6771 30.0312 23.5938C29.9479 24.5312 29.8438 25.2083 29.7188 25.625C29.5312 26.2708 29.3125 26.9062 29.0625 27.5312C28.8333 28.1771 28.5208 28.7396 28.125 29.2188C27.75 29.6979 27.2604 30.0625 26.6562 30.3125C26.0729 30.5625 25.3229 30.625 24.4062 30.5C23.4896 30.3542 22.75 30.0312 22.1875 29.5312C21.6042 29.0521 21.1354 28.5312 20.7812 27.9688C20.4271 27.4062 20.1562 26.8646 19.9688 26.3438C19.7812 25.8438 19.6042 25.5104 19.4375 25.3438C19.2917 25.2188 19.1354 25.0833 18.9688 24.9375C18.8021 24.8125 18.625 24.6667 18.4375 24.5C18.2292 24.3333 17.9896 24.1667 17.7188 24C18.2188 23.9583 18.6562 23.9271 19.0312 23.9062C19.4062 23.8854 19.7083 23.875 19.9375 23.875H20.6562C20.8854 23.8958 21.1771 23.9062 21.5312 23.9062C21.8229 23.9062 22.2083 23.9062 22.6875 23.9062C23.1458 23.9062 23.7083 23.8854 24.375 23.8438C24.1458 23.9688 23.9583 24.0833 23.8125 24.1875C23.6458 24.3125 23.5104 24.4167 23.4062 24.5C23.3021 24.6042 23.2188 24.6979 23.1562 24.7812C23.0938 24.8854 23.0521 25.1458 23.0312 25.5625C23.0104 26 23.0417 26.4479 23.125 26.9062C23.2083 27.3854 23.3542 27.8021 23.5625 28.1562C23.7708 28.5104 24.0729 28.6771 24.4688 28.6562C24.8646 28.6354 25.2083 28.4375 25.5 28.0625C25.7917 27.7083 26.0417 27.1354 26.25 26.3438C26.4792 25.5729 26.6562 24.5521 26.7812 23.2812C26.9271 22.0104 27.0312 20.4479 27.0938 18.5938C27.1562 16.3021 27.1979 14.4583 27.2188 13.0625C27.2396 11.6667 27.1562 10.5104 26.9688 9.59375ZM32.9688 9.03125L38.7188 9.09375C38.3854 10.3646 38.1354 11.4479 37.9688 12.3438C37.8229 13.2396 37.7292 13.9896 37.6875 14.5938C37.6042 15.2812 37.5833 15.8646 37.625 16.3438C37.6875 16.7812 37.7917 17.25 37.9375 17.75C38.0625 18.1667 38.25 18.6458 38.5 19.1875C38.75 19.7292 39.0833 20.2708 39.5 20.8125C39.25 20.7292 38.9792 20.6667 38.6875 20.625C38.3958 20.5833 38.125 20.5521 37.875 20.5312C37.5833 20.5104 37.2917 20.5104 37 20.5312C36.7083 20.5521 36.3854 20.5833 36.0312 20.625C35.7396 20.6667 35.3854 20.7188 34.9688 20.7812C34.5521 20.8438 34.1146 20.9271 33.6562 21.0312C33.9688 20.0938 34.2083 19.2812 34.375 18.5938C34.5625 17.9062 34.6979 17.3333 34.7812 16.875C34.8646 16.3333 34.9167 15.8958 34.9375 15.5625C34.9375 15.1458 34.9375 14.6771 34.9375 14.1562C34.9375 13.6146 34.9375 13.0938 34.9375 12.5938C34.9375 12.0938 34.9271 11.6562 34.9062 11.2812C34.8854 10.8854 34.8438 10.6354 34.7812 10.5312L34.4688 10.2188C34.3438 10.1146 34.1562 9.96875 33.9062 9.78125C33.6771 9.57292 33.3646 9.32292 32.9688 9.03125ZM35.1875 4.21875C35.625 3.98958 36.0625 3.92708 36.5 4.03125C36.9583 4.13542 37.3125 4.33333 37.5625 4.625C37.8125 4.91667 37.8958 5.26042 37.8125 5.65625C37.75 6.05208 37.4167 6.4375 36.8125 6.8125C36.2083 7.16667 35.6771 7.29167 35.2188 7.1875C34.7604 7.08333 34.4375 6.86458 34.25 6.53125C34.0625 6.19792 34.0312 5.8125 34.1562 5.375C34.2812 4.91667 34.625 4.53125 35.1875 4.21875ZM40.25 3.3125C40.875 3.375 41.3958 3.42708 41.8125 3.46875C42.25 3.51042 42.6042 3.54167 42.875 3.5625C43.1875 3.58333 43.4375 3.59375 43.625 3.59375C43.8125 3.61458 44.0625 3.61458 44.375 3.59375C44.6458 3.57292 45 3.55208 45.4375 3.53125C45.875 3.48958 46.4271 3.42708 47.0938 3.34375C46.9479 3.55208 46.8333 3.73958 46.75 3.90625C46.6667 4.05208 46.5938 4.1875 46.5312 4.3125L46.3438 4.6875C46.3021 4.8125 46.2604 4.9375 46.2188 5.0625C46.1771 5.16667 46.1354 5.29167 46.0938 5.4375C46.0729 5.58333 46.0521 5.73958 46.0312 5.90625H50.8438L50.4062 8.4375L46 8.1875C45.8958 9.25 45.8229 10.0729 45.7812 10.6562C45.7396 11.2396 45.6979 11.6667 45.6562 11.9375L45.5938 12.5C45.5312 13.2917 45.4688 14.1562 45.4062 15.0938C45.3438 16.0104 45.3229 16.8646 45.3438 17.6562C45.3646 18.4479 45.4375 19.1146 45.5625 19.6562C45.6875 20.1771 45.9062 20.4375 46.2188 20.4375C46.5312 20.4375 46.8229 20.3542 47.0938 20.1875C47.3646 20.0208 47.5938 19.8229 47.7812 19.5938C47.9896 19.3646 48.1458 19.1354 48.25 18.9062C48.3542 18.6562 48.4062 18.4688 48.4062 18.3438C48.4062 18.2188 48.375 18.0729 48.3125 17.9062C48.2083 17.5938 48.0208 17.1979 47.75 16.7188C48.3542 16.8646 48.8854 17.0104 49.3438 17.1562C49.5729 17.2396 49.7812 17.3229 49.9688 17.4062C50.1771 17.4896 50.4167 17.5833 50.6875 17.6875C50.9167 17.7917 51.2083 17.9167 51.5625 18.0625C51.9167 18.2083 52.3333 18.3854 52.8125 18.5938C52.3542 18.6771 52.0208 18.8125 51.8125 19C51.6875 19.0833 51.5938 19.1771 51.5312 19.2812C51.3854 19.5104 51.2188 19.8229 51.0312 20.2188C50.8438 20.5938 50.5625 20.9688 50.1875 21.3438C49.8125 21.7188 49.3021 22.0521 48.6562 22.3438C48.0312 22.6354 47.1875 22.8021 46.125 22.8438C45.0208 22.8854 44.1771 22.6979 43.5938 22.2812C43.0312 21.8646 42.6146 21.3854 42.3438 20.8438C42.0938 20.2812 41.9479 19.7292 41.9062 19.1875C41.8646 18.6458 41.8333 18.2812 41.8125 18.0938C41.7917 17.9062 41.7917 17.4375 41.8125 16.6875C41.8333 15.9375 41.8646 15.1146 41.9062 14.2188C41.9479 13.3021 41.9896 12.4271 42.0312 11.5938C42.0729 10.7396 42.0938 10.1146 42.0938 9.71875C42.0938 9.51042 42.1042 9.29167 42.125 9.0625C42.125 8.875 42.125 8.67708 42.125 8.46875C42.1458 8.23958 42.1562 8.02083 42.1562 7.8125L37.625 7.78125L37.4375 6L42 6.125C41.9583 5.89583 41.9062 5.6875 41.8438 5.5C41.8021 5.29167 41.7604 5.125 41.7188 5C41.6562 4.85417 41.5938 4.72917 41.5312 4.625C41.4479 4.52083 41.3542 4.40625 41.25 4.28125C41.1458 4.17708 41.0104 4.04167 40.8438 3.875C40.6771 3.70833 40.4792 3.52083 40.25 3.3125ZM73.5312 0.4375C74.8646 0.416667 75.9583 0.65625 76.8125 1.15625C77.6875 1.65625 78.3958 2.25 78.9375 2.9375C79.4792 3.625 79.8958 4.32292 80.1875 5.03125C80.4792 5.71875 80.7083 6.26042 80.875 6.65625C80.9167 6.76042 81 6.89583 81.125 7.0625C81.2292 7.20833 81.375 7.38542 81.5625 7.59375C81.7708 7.78125 82.0312 8 82.3438 8.25C81.6979 8.27083 81.125 8.29167 80.625 8.3125C80.125 8.3125 79.6979 8.32292 79.3438 8.34375C78.9479 8.36458 78.5938 8.38542 78.2812 8.40625C77.9688 8.42708 77.5833 8.45833 77.125 8.5C76.7083 8.54167 76.1979 8.58333 75.5938 8.625C74.9896 8.66667 74.25 8.72917 73.375 8.8125C73.8958 8.1875 74.3021 7.63542 74.5938 7.15625C74.9062 6.65625 75.1354 6.21875 75.2812 5.84375C75.4479 5.44792 75.5417 5.10417 75.5625 4.8125C75.6042 4.52083 75.5938 4.27083 75.5312 4.0625C75.4062 3.58333 75.0833 3.23958 74.5625 3.03125C73.0625 2.61458 71.75 2.94792 70.625 4.03125C69.5208 5.09375 68.7292 6.84375 68.25 9.28125C68.0208 10.4896 67.8021 11.75 67.5938 13.0625C67.4062 14.3542 67.3333 15.5417 67.375 16.625C67.4167 17.6875 67.625 18.5521 68 19.2188C68.375 19.8854 69.0208 20.1979 69.9375 20.1562C70.8333 20.1146 71.5938 19.9688 72.2188 19.7188C72.8438 19.4479 73.3438 19.1354 73.7188 18.7812C74.0938 18.4062 74.3542 18.0104 74.5 17.5938C74.6667 17.1562 74.7292 16.75 74.6875 16.375C74.6042 16.0833 74.3854 15.7708 74.0312 15.4375C73.7188 15.1458 73.25 14.8229 72.625 14.4688C72 14.0938 71.1042 13.7083 69.9375 13.3125C71.0417 13.25 71.9479 13.2083 72.6562 13.1875C73.3854 13.1458 73.9583 13.1042 74.375 13.0625C74.875 13.0208 75.2604 12.9896 75.5312 12.9688C75.7812 12.9479 76.1458 12.9271 76.625 12.9062C77.0417 12.8854 77.5729 12.875 78.2188 12.875C78.8854 12.875 79.7188 12.8646 80.7188 12.8438C80.3438 13.2188 80.0521 13.5625 79.8438 13.875C79.7396 14.0417 79.6458 14.1875 79.5625 14.3125C79.4792 14.5208 79.4479 14.9479 79.4688 15.5938C79.4688 16.1354 79.5104 16.9375 79.5938 18C79.6771 19.0417 79.8333 20.4688 80.0625 22.2812L75.9062 22.8438L76.0938 18.625C75.6146 19.7708 75.0104 20.625 74.2812 21.1875C73.5729 21.75 72.8958 22.1458 72.25 22.375C71.4792 22.6458 70.6771 22.7708 69.8438 22.75C68.7604 22.6458 67.6771 22.3958 66.5938 22C65.5104 21.6042 64.5521 21 63.7188 20.1875C62.8854 19.3542 62.2396 18.2812 61.7812 16.9688C61.3438 15.6562 61.2083 14.0312 61.375 12.0938C61.5625 10.1562 62.0208 8.46875 62.75 7.03125C63.5 5.57292 64.4271 4.36458 65.5312 3.40625C66.6354 2.44792 67.875 1.72917 69.25 1.25C70.6458 0.75 72.0729 0.479167 73.5312 0.4375ZM84.6875 10.3438C84.7917 10.2188 84.8542 9.98958 84.875 9.65625C84.9167 9.30208 85 8.90625 85.125 8.46875C85.2708 8.03125 85.5104 7.57292 85.8438 7.09375C86.1771 6.61458 86.7188 6.16667 87.4688 5.75C88.1979 5.33333 88.9062 5.08333 89.5938 5C90.2812 4.91667 90.9375 4.94792 91.5625 5.09375C92.1875 5.23958 92.7708 5.46875 93.3125 5.78125C93.875 6.09375 94.3854 6.4375 94.8438 6.8125C95.1562 7.0625 95.4062 7.42708 95.5938 7.90625C95.7812 8.36458 95.9271 8.88542 96.0312 9.46875C96.1354 10.0521 96.2083 10.6667 96.25 11.3125C96.3125 11.9375 96.3542 12.5521 96.375 13.1562C96.3958 13.7396 96.4062 14.2812 96.4062 14.7812C96.4271 15.2604 96.4688 15.6562 96.5312 15.9688C96.6146 16.4271 96.7604 16.8229 96.9688 17.1562C97.1771 17.4688 97.4062 17.7396 97.6562 17.9688C97.9062 18.1771 98.1562 18.3438 98.4062 18.4688C98.6562 18.5938 98.875 18.6875 99.0625 18.75C99.1875 18.8125 99.3021 18.8542 99.4062 18.875C99.6146 18.9583 99.7604 18.9583 99.8438 18.875C99.7188 19.1667 99.6042 19.4167 99.5 19.625C99.3958 19.8333 99.3125 20.0104 99.25 20.1562C99.1667 20.3229 99.0938 20.4583 99.0312 20.5625C98.9688 20.6875 98.8958 20.8021 98.8125 20.9062C98.75 21.0104 98.6667 21.125 98.5625 21.25C98.4583 21.375 98.3542 21.5104 98.25 21.6562C97.9792 21.5521 97.7188 21.4271 97.4688 21.2812C97.2396 21.1354 97.0312 21 96.8438 20.875C96.6146 20.7292 96.4062 20.5833 96.2188 20.4375C96.0312 20.2917 95.8542 20.125 95.6875 19.9375C95.5417 19.7708 95.3854 19.5938 95.2188 19.4062C95.0729 19.2188 94.9479 19.0104 94.8438 18.7812C94.7188 19.0521 94.4167 19.4375 93.9375 19.9375C93.4792 20.4375 92.875 20.8958 92.125 21.3125C91.375 21.7083 90.5 21.9896 89.5 22.1562C88.5208 22.3229 87.4375 22.2083 86.25 21.8125C85.7292 21.6458 85.2396 21.4062 84.7812 21.0938C84.3229 20.7604 83.9271 20.3646 83.5938 19.9062C83.2812 19.4479 83.0521 18.9271 82.9062 18.3438C82.7812 17.7396 82.7917 17.0729 82.9375 16.3438C83.0833 15.6146 83.3438 15 83.7188 14.5C84.0938 14 84.5417 13.5938 85.0625 13.2812C85.5833 12.9688 86.1667 12.7292 86.8125 12.5625C87.4583 12.3958 88.125 12.2812 88.8125 12.2188C89.3542 12.1979 89.8958 12.2292 90.4375 12.3125C90.8958 12.3958 91.375 12.5521 91.875 12.7812C92.375 12.9896 92.8021 13.3125 93.1562 13.75C93.1354 12.6458 93.0938 11.7708 93.0312 11.125C92.9896 10.4583 92.9479 9.94792 92.9062 9.59375C92.8229 9.17708 92.75 8.88542 92.6875 8.71875C92.5833 8.57292 92.4688 8.40625 92.3438 8.21875C92.2396 8.03125 92.1042 7.86458 91.9375 7.71875C91.7708 7.55208 91.5625 7.41667 91.3125 7.3125C91.0625 7.20833 90.7708 7.16667 90.4375 7.1875C90.0833 7.20833 89.8021 7.30208 89.5938 7.46875C89.3854 7.63542 89.2188 7.83333 89.0938 8.0625C88.9896 8.27083 88.9271 8.5 88.9062 8.75C88.8854 9 88.8958 9.21875 88.9375 9.40625C88.9792 9.53125 89.0417 9.66667 89.125 9.8125C89.2083 9.9375 89.3229 10.0729 89.4688 10.2188C89.6146 10.3646 89.8125 10.4896 90.0625 10.5938C89.5833 10.6562 89.1562 10.7083 88.7812 10.75C88.4062 10.7708 88.0833 10.8021 87.8125 10.8438C87.5 10.8854 87.2292 10.9167 87 10.9375C86.7708 10.9583 86.5 11 86.1875 11.0625C85.9167 11.1042 85.5833 11.1562 85.1875 11.2188C84.7917 11.2812 84.3333 11.3646 83.8125 11.4688C83.9375 11.3229 84.0521 11.1875 84.1562 11.0625C84.2604 10.9167 84.3542 10.7917 84.4375 10.6875C84.5208 10.5625 84.6042 10.4479 84.6875 10.3438ZM89.375 14.0625C89 14.0833 88.625 14.1771 88.25 14.3438C87.875 14.4896 87.5417 14.7083 87.25 15C86.9583 15.2708 86.7083 15.5938 86.5 15.9688C86.3125 16.3229 86.2188 16.7188 86.2188 17.1562C86.2188 17.5938 86.3229 17.9792 86.5312 18.3125C86.7604 18.625 87.0521 18.8854 87.4062 19.0938C87.7812 19.3021 88.1771 19.4271 88.5938 19.4688C89.0312 19.5104 89.4583 19.4688 89.875 19.3438C90.2708 19.1979 90.6458 18.9688 91 18.6562C91.3542 18.3229 91.6562 17.9688 91.9062 17.5938C92.1562 17.1979 92.3333 16.8125 92.4375 16.4375C92.5417 16.0417 92.5521 15.7188 92.4688 15.4688C92.3021 14.9271 91.9271 14.5521 91.3438 14.3438C90.7604 14.1146 90.1042 14.0208 89.375 14.0625ZM99.2188 8.03125C99.6146 8.05208 99.9688 8.0625 100.281 8.0625C100.615 8.04167 100.896 8.02083 101.125 8C101.396 7.97917 101.635 7.95833 101.844 7.9375C102.156 7.89583 102.479 7.84375 102.812 7.78125C103.104 7.73958 103.406 7.6875 103.719 7.625C104.052 7.54167 104.375 7.44792 104.688 7.34375C104.562 7.65625 104.458 7.92708 104.375 8.15625C104.292 8.38542 104.229 8.58333 104.188 8.75C104.125 8.9375 104.094 9.09375 104.094 9.21875C104.073 9.36458 104.062 9.54167 104.062 9.75C104.042 10.1042 104.042 10.6771 104.062 11.4688C105.146 10.5312 106.052 9.80208 106.781 9.28125C107.531 8.76042 108.125 8.35417 108.562 8.0625C109.083 7.72917 109.49 7.51042 109.781 7.40625C110.552 7.28125 111.229 7.45833 111.812 7.9375C112.062 8.14583 112.302 8.42708 112.531 8.78125C112.76 9.11458 112.958 9.5625 113.125 10.125C113.292 10.6875 113.417 11.3646 113.5 12.1562C113.583 12.9271 113.594 13.8542 113.531 14.9375C113.094 14.9792 112.698 15.0208 112.344 15.0625C112.01 15.1042 111.729 15.1354 111.5 15.1562C111.229 15.1979 110.979 15.2188 110.75 15.2188L109.906 15.3125C109.615 15.3542 109.25 15.3958 108.812 15.4375C108.396 15.4583 107.885 15.5 107.281 15.5625C108.156 14.8542 108.719 14.2396 108.969 13.7188C109.24 13.1771 109.354 12.7292 109.312 12.375C109.271 11.9792 109.083 11.6354 108.75 11.3438C108.354 11.1146 107.927 11.0312 107.469 11.0938C107.073 11.1354 106.615 11.3125 106.094 11.625C105.573 11.9375 105.021 12.5208 104.438 13.375C104.479 14.7083 104.521 15.8125 104.562 16.6875C104.625 17.5625 104.677 18.2708 104.719 18.8125C104.781 19.4375 104.833 19.9271 104.875 20.2812C104.938 20.5938 105.062 20.9271 105.25 21.2812C105.396 21.5729 105.604 21.8958 105.875 22.25C106.146 22.6042 106.5 22.9583 106.938 23.3125C106.021 23.2708 105.271 23.2708 104.688 23.3125C104.333 23.3333 104.021 23.3542 103.75 23.375C103.458 23.4167 103.146 23.4583 102.812 23.5C102.521 23.5417 102.177 23.5833 101.781 23.625C101.406 23.6875 100.99 23.75 100.531 23.8125C100.698 23.5833 100.833 23.3125 100.938 23C101.042 22.7083 101.125 22.4271 101.188 22.1562C101.271 21.8438 101.333 21.5208 101.375 21.1875C101.396 20.8958 101.406 20.4583 101.406 19.875C101.427 19.2917 101.417 18.6354 101.375 17.9062C101.354 17.1562 101.323 16.3854 101.281 15.5938C101.24 14.7812 101.188 14.0208 101.125 13.3125C101.062 12.6042 100.99 11.9896 100.906 11.4688C100.844 10.9271 100.771 10.5521 100.688 10.3438C100.583 10.0938 100.458 9.84375 100.312 9.59375C100.188 9.36458 100.031 9.125 99.8438 8.875C99.6562 8.60417 99.4479 8.32292 99.2188 8.03125ZM129.594 9.75C129.531 9.33333 129.479 8.98958 129.438 8.71875C129.396 8.42708 129.354 8.19792 129.312 8.03125C129.271 7.82292 129.24 7.66667 129.219 7.5625C129.177 7.45833 129.125 7.34375 129.062 7.21875C129.021 7.11458 128.948 6.98958 128.844 6.84375C128.76 6.69792 128.656 6.53125 128.531 6.34375C128.802 6.42708 129.073 6.47917 129.344 6.5C129.635 6.52083 129.906 6.54167 130.156 6.5625C130.427 6.58333 130.708 6.58333 131 6.5625C131.292 6.5625 131.625 6.55208 132 6.53125C132.333 6.51042 132.729 6.5 133.188 6.5C133.667 6.47917 134.208 6.44792 134.812 6.40625C134.458 6.48958 134.156 6.63542 133.906 6.84375C133.677 7.03125 133.479 7.23958 133.312 7.46875C133.125 7.71875 132.969 7.98958 132.844 8.28125C132.74 8.55208 132.677 9.07292 132.656 9.84375C132.635 10.5938 132.635 11.4896 132.656 12.5312C132.677 13.5521 132.698 14.6562 132.719 15.8438C132.76 17.0312 132.781 18.1667 132.781 19.25C132.802 20.3333 132.802 21.3229 132.781 22.2188C132.76 23.0938 132.708 23.7396 132.625 24.1562C132.333 25.4688 131.792 26.5312 131 27.3438C130.208 28.1771 129.167 28.625 127.875 28.6875C126.312 28.75 125.073 28.6042 124.156 28.25C123.26 27.8958 122.562 27.4583 122.062 26.9375C121.562 26.4375 121.188 25.9271 120.938 25.4062C120.688 24.8854 120.427 24.4896 120.156 24.2188C119.906 23.9896 119.656 23.7708 119.406 23.5625C119.177 23.3958 118.938 23.2292 118.688 23.0625C118.458 22.8958 118.229 22.7917 118 22.75C118.604 22.7708 119.146 22.7812 119.625 22.7812C120.104 22.7812 120.51 22.7812 120.844 22.7812C121.219 22.7812 121.552 22.7708 121.844 22.75H122.844H125.688C125.271 22.875 124.958 23.0104 124.75 23.1562C124.542 23.3229 124.396 23.4896 124.312 23.6562C124.229 23.8438 124.188 24.0312 124.188 24.2188C124.271 24.7188 124.542 25.0833 125 25.3125C125.458 25.5417 126.083 25.6771 126.875 25.7188C127.646 25.7604 128.177 25.7396 128.469 25.6562C128.76 25.5938 128.99 25.4688 129.156 25.2812C129.49 24.7812 129.771 24.1354 130 23.3438C130.167 22.6771 130.281 21.8125 130.344 20.75C130.427 19.6667 130.333 18.3438 130.062 16.7812C129.396 17.6979 128.625 18.3854 127.75 18.8438C126.875 19.3021 126.042 19.6354 125.25 19.8438C124.312 20.0729 123.365 20.1875 122.406 20.1875C119.885 20.0833 118 19.5 116.75 18.4375C115.5 17.375 114.927 15.9479 115.031 14.1562C115.094 13.2604 115.365 12.3646 115.844 11.4688C116.344 10.5729 116.99 9.77083 117.781 9.0625C118.594 8.35417 119.521 7.79167 120.562 7.375C121.604 6.95833 122.688 6.78125 123.812 6.84375C124.667 6.92708 125.469 7.08333 126.219 7.3125C126.865 7.52083 127.5 7.8125 128.125 8.1875C128.771 8.5625 129.26 9.08333 129.594 9.75ZM119.656 12.875C119.531 13.6875 119.583 14.4479 119.812 15.1562C120.062 15.8646 120.406 16.4792 120.844 17C121.281 17.5 121.771 17.8958 122.312 18.1875C122.854 18.4583 123.365 18.5833 123.844 18.5625C124.844 18.5417 125.708 18.0938 126.438 17.2188C127.167 16.3229 127.604 14.9896 127.75 13.2188C127.812 12.3438 127.698 11.5938 127.406 10.9688C127.135 10.3229 126.792 9.80208 126.375 9.40625C125.958 9.01042 125.521 8.72917 125.062 8.5625C124.604 8.39583 124.24 8.32292 123.969 8.34375C123.594 8.38542 123.177 8.5 122.719 8.6875C122.281 8.85417 121.854 9.11458 121.438 9.46875C121.021 9.80208 120.646 10.25 120.312 10.8125C120 11.375 119.781 12.0625 119.656 12.875Z" fill="black"/>
</svg>
